<?xml version="1.0" encoding="UTF-8"?>
<!DOCTYPE svg PUBLIC "-//W3C//DTD SVG 1.1//EN" "http://www.w3.org/Graphics/SVG/1.1/DTD/svg11.dtd">
<svg xmlns="http://www.w3.org/2000/svg" version="1.1" width="83px" height="70px" style="shape-rendering:geometricPrecision; text-rendering:geometricPrecision; image-rendering:optimizeQuality; fill-rule:evenodd; clip-rule:evenodd" xmlns:xlink="http://www.w3.org/1999/xlink">
<g><path style="opacity:0.933" fill="#f2f2f2" d="M 50.5,-0.5 C 54.1667,-0.5 57.8333,-0.5 61.5,-0.5C 63.7686,0.97576 66.1019,2.47576 68.5,4C 69.2524,4.67076 69.5858,5.5041 69.5,6.5C 68.6586,15.3599 67.9919,24.1932 67.5,33C 68.7051,34.3756 70.0384,35.5423 71.5,36.5C 72.2216,36.9175 72.7216,37.5842 73,38.5C 73.3333,38.1667 73.6667,37.8333 74,37.5C 75.4213,39.4048 76.588,41.4048 77.5,43.5C 79.8702,53.3844 75.8702,58.7177 65.5,59.5C 53.2197,57.9265 49.5531,51.5932 54.5,40.5C 56.1423,39.197 57.8089,37.8637 59.5,36.5C 60.4584,36.0472 61.2917,35.3805 62,34.5C 62.2511,32.567 62.7511,30.7337 63.5,29C 62.6851,21.9133 62.1851,14.7466 62,7.5C 61.5,6.33333 60.6667,5.5 59.5,5C 56.3307,4.02185 53.4973,4.52185 51,6.5C 50.6667,21.5 50.3333,36.5 50,51.5C 48.8602,56.6399 45.6935,59.8065 40.5,61C 32.1464,63.2553 25.3131,61.0886 20,54.5C 19.5045,52.5273 19.3379,50.5273 19.5,48.5C 14.1975,49.5239 10.8641,47.5239 9.5,42.5C 7.58663,41.627 5.75329,40.627 4,39.5C 3.50014,28.1716 3.33348,16.8382 3.5,5.5C 4.62656,4.87833 5.62656,4.04499 6.5,3C 16.5,2.33333 26.5,2.33333 36.5,3C 38.5444,3.49833 39.8777,4.66499 40.5,6.5C 40.6665,17.1719 40.4998,27.8385 40,38.5C 38.6811,40.4875 36.8477,41.6541 34.5,42C 33.1397,47.1926 29.8064,49.3592 24.5,48.5C 24.8714,52.2496 26.8714,54.583 30.5,55.5C 33.8924,56.8331 37.2257,56.4998 40.5,54.5C 41.4584,54.0472 42.2917,53.3805 43,52.5C 44.7223,36.6976 44.8889,21.0309 43.5,5.5C 45.6471,3.26321 47.9804,1.26321 50.5,-0.5 Z M 59.5,36.5 C 57.8089,37.8637 56.1423,39.197 54.5,40.5C 53.8341,36.0124 53.5008,31.3457 53.5,26.5C 53.3564,21.3291 53.8564,16.3291 55,11.5C 56,12.8333 57,12.8333 58,11.5C 58.4017,12.8721 58.9017,14.2054 59.5,15.5C 58.6399,22.5433 58.6399,29.5433 59.5,36.5 Z M 40.5,54.5 C 37.2257,56.4998 33.8924,56.8331 30.5,55.5C 34.4812,53.3519 37.6479,50.3519 40,46.5C 40.4974,49.146 40.6641,51.8127 40.5,54.5 Z M 68.5,52.5 C 66.1667,53.8333 63.8333,53.8333 61.5,52.5C 64.118,47.3151 66.4514,47.3151 68.5,52.5 Z"/></g>
<g><path style="opacity:0.028" fill="#0d0d0d" d="M 69.5,6.5 C 70.944,10.1281 71.944,13.9615 72.5,18C 71.8027,23.9542 71.4694,30.1208 71.5,36.5C 70.0384,35.5423 68.7051,34.3756 67.5,33C 67.9919,24.1932 68.6586,15.3599 69.5,6.5 Z"/></g>
<g><path style="opacity:0.101" fill="#121212" d="M 59.5,36.5 C 58.6399,29.5433 58.6399,22.5433 59.5,15.5C 58.9017,14.2054 58.4017,12.8721 58,11.5C 57,12.8333 56,12.8333 55,11.5C 53.8564,16.3291 53.3564,21.3291 53.5,26.5C 53.5008,31.3457 53.8341,36.0124 54.5,40.5C 49.5531,51.5932 53.2197,57.9265 65.5,59.5C 75.8702,58.7177 79.8702,53.3844 77.5,43.5C 78.4959,43.4142 79.3292,43.7476 80,44.5C 80.8447,46.6115 81.678,48.6115 82.5,50.5C 82.5,50.8333 82.5,51.1667 82.5,51.5C 81.1667,52.1667 81.1667,52.8333 82.5,53.5C 82.5,53.8333 82.5,54.1667 82.5,54.5C 78.9452,63.228 72.2785,67.0614 62.5,66C 58.4483,65.3734 54.7817,63.8734 51.5,61.5C 47.3773,66.0584 42.3773,68.725 36.5,69.5C 36.1667,69.5 35.8333,69.5 35.5,69.5C 35.1667,68.1667 34.8333,68.1667 34.5,69.5C 34.1667,69.5 33.8333,69.5 33.5,69.5C 33.1667,68.1667 32.8333,68.1667 32.5,69.5C 32.1667,69.5 31.8333,69.5 31.5,69.5C 26.4601,68.3954 21.9601,66.0621 18,62.5C 16.5886,60.3496 15.7553,58.0163 15.5,55.5C 10.2869,55.9133 7.6202,53.58 7.5,48.5C 2.79921,47.7993 0.13254,45.1326 -0.5,40.5C -0.5,40.1667 -0.5,39.8333 -0.5,39.5C 0.833333,39.1667 0.833333,38.8333 -0.5,38.5C -0.5,36.8333 -0.5,35.1667 -0.5,33.5C 0.833333,33.1667 0.833333,32.8333 -0.5,32.5C -0.5,29.5 -0.5,26.5 -0.5,23.5C 0.833333,23.1667 0.833333,22.8333 -0.5,22.5C -0.5,20.1667 -0.5,17.8333 -0.5,15.5C 0.833333,15.1667 0.833333,14.8333 -0.5,14.5C -0.5,14.1667 -0.5,13.8333 -0.5,13.5C -0.0146018,10.4308 1.31873,7.76409 3.5,5.5C 3.33348,16.8382 3.50014,28.1716 4,39.5C 5.75329,40.627 7.58663,41.627 9.5,42.5C 10.8641,47.5239 14.1975,49.5239 19.5,48.5C 19.3379,50.5273 19.5045,52.5273 20,54.5C 25.3131,61.0886 32.1464,63.2553 40.5,61C 45.6935,59.8065 48.8602,56.6399 50,51.5C 50.3333,36.5 50.6667,21.5 51,6.5C 53.4973,4.52185 56.3307,4.02185 59.5,5C 60.6667,5.5 61.5,6.33333 62,7.5C 62.1851,14.7466 62.6851,21.9133 63.5,29C 62.7511,30.7337 62.2511,32.567 62,34.5C 61.2917,35.3805 60.4584,36.0472 59.5,36.5 Z M 40.5,54.5 C 37.2257,56.4998 33.8924,56.8331 30.5,55.5C 34.4812,53.3519 37.6479,50.3519 40,46.5C 40.4974,49.146 40.6641,51.8127 40.5,54.5 Z M 68.5,52.5 C 66.1667,53.8333 63.8333,53.8333 61.5,52.5C 64.118,47.3151 66.4514,47.3151 68.5,52.5 Z"/></g>
<g><path style="opacity:0.092" fill="#0c0c0c" d="M 43.5,5.5 C 44.8889,21.0309 44.7223,36.6976 43,52.5C 42.2917,53.3805 41.4584,54.0472 40.5,54.5C 40.6641,51.8127 40.4974,49.146 40,46.5C 37.6479,50.3519 34.4812,53.3519 30.5,55.5C 26.8714,54.583 24.8714,52.2496 24.5,48.5C 29.8064,49.3592 33.1397,47.1926 34.5,42C 36.8477,41.6541 38.6811,40.4875 40,38.5C 40.4998,27.8385 40.6665,17.1719 40.5,6.5C 41.609,6.44312 42.609,6.10978 43.5,5.5 Z"/></g>
<g><path style="opacity:0.952" fill="#e41507" d="M 34.5,23.5 C 34.5,24.5 34.5,25.5 34.5,26.5C 33.3144,29.5992 30.9811,30.9325 27.5,30.5C 27.67,31.8221 27.3366,32.9887 26.5,34C 23.5,34.6667 20.5,34.6667 17.5,34C 15.1115,31.3931 12.4448,29.2265 9.5,27.5C 9.5,25.8333 9.5,24.1667 9.5,22.5C 12.8453,21.6586 15.512,19.8253 17.5,17C 20.5,16.3333 23.5,16.3333 26.5,17C 27.3366,18.0113 27.67,19.1779 27.5,20.5C 30.491,20.1663 32.8243,21.1663 34.5,23.5 Z"/></g>
<g><path style="opacity:0.957" fill="#ffefed" d="M 19.5,19.5 C 21.1667,19.5 22.8333,19.5 24.5,19.5C 24.5,20.8333 24.5,22.1667 24.5,23.5C 26.5,23.5 28.5,23.5 30.5,23.5C 30.5,24.8333 30.5,26.1667 30.5,27.5C 28.5,27.5 26.5,27.5 24.5,27.5C 24.5,28.8333 24.5,30.1667 24.5,31.5C 22.8333,31.5 21.1667,31.5 19.5,31.5C 19.5,30.1667 19.5,28.8333 19.5,27.5C 17.5,27.5 15.5,27.5 13.5,27.5C 13.5,26.1667 13.5,24.8333 13.5,23.5C 15.5,23.5 17.5,23.5 19.5,23.5C 19.5,22.1667 19.5,20.8333 19.5,19.5 Z"/></g>
<g><path style="opacity:0.144" fill="#030303" d="M 34.5,23.5 C 32.8243,21.1663 30.491,20.1663 27.5,20.5C 27.67,19.1779 27.3366,18.0113 26.5,17C 23.5,16.3333 20.5,16.3333 17.5,17C 15.512,19.8253 12.8453,21.6586 9.5,22.5C 9.5,19.8333 9.5,17.1667 9.5,14.5C 14.5871,13.8949 19.5871,13.8949 24.5,14.5C 24.7135,12.8561 24.3802,11.3561 23.5,10C 18.8514,10.3376 14.1847,9.83757 9.5,8.5C 17.8333,7.16667 26.1667,7.16667 34.5,8.5C 31.8929,9.31844 29.2263,9.81844 26.5,10C 25.6198,11.3561 25.2865,12.8561 25.5,14.5C 28.5,14.5 31.5,14.5 34.5,14.5C 34.5,17.5 34.5,20.5 34.5,23.5 Z"/></g>
<g><path style="opacity:0.157" fill="#040202" d="M 34.5,26.5 C 34.5,29.8333 34.5,33.1667 34.5,36.5C 26.1667,36.5 17.8333,36.5 9.5,36.5C 9.5,33.5 9.5,30.5 9.5,27.5C 12.4448,29.2265 15.1115,31.3931 17.5,34C 20.5,34.6667 23.5,34.6667 26.5,34C 27.3366,32.9887 27.67,31.8221 27.5,30.5C 30.9811,30.9325 33.3144,29.5992 34.5,26.5 Z"/></g>
<g><path style="opacity:0.134" fill="#131313" d="M 68.5,52.5 C 66.4514,47.3151 64.118,47.3151 61.5,52.5C 60.5041,52.5858 59.6708,52.2524 59,51.5C 58.2152,46.0699 60.3819,42.0699 65.5,39.5C 70.0853,41.8818 72.252,45.5485 72,50.5C 71,51.5 70,52.5 69,53.5C 68.6012,53.2716 68.4346,52.9382 68.5,52.5 Z"/></g>
</svg>
